<svg version="1.2" xmlns="http://www.w3.org/2000/svg" viewBox="0 0 1228 289" width="1228" height="289">
	<style>
		.s0 { opacity: 1;fill: #fefefe } 
		.s1 { opacity: .48;fill: #fdfdfd } 
	</style>
	<g id="Background">
		<path id="Path 0" fill-rule="evenodd" class="s0" d="m442 0.76c9.63 0.22 24.02 1.27 32 2.35 7.98 1.08 15.4 2.38 16.5 2.89 1.1 0.51 4.93 1.67 8.5 2.58 3.57 0.91 10.55 3.62 15.5 6.02 4.95 2.41 12.38 6.99 16.5 10.2 4.13 3.2 10.1 9.17 13.28 13.26 3.18 4.09 7.57 10.82 9.75 14.94 2.19 4.13 5.3 11.55 6.91 16.5 1.62 4.95 3.64 13.5 4.49 19 1.23 7.93 1.55 19.47 1.56 55.75 0.01 36.06-0.32 47.92-1.53 56-0.84 5.64-2.63 14.3-3.98 19.25-1.34 4.95-4.21 12.6-6.38 17-2.17 4.4-5.34 9.8-7.05 12-1.72 2.2-3.1 4.34-3.08 4.75 0.01 0.41-3.46 3.72-7.72 7.35-4.26 3.63-10.9 8.19-14.75 10.13-3.85 1.94-7.23 3.8-7.5 4.15-0.27 0.34-0.95 0.72-1.5 0.84-0.55 0.11-5.05 1.63-10 3.36-4.95 1.73-13.5 3.98-19 5.01-5.5 1.04-19 2.38-30 3-11 0.62-31.02 0.92-44.5 0.67-19.1-0.36-27.37-0.94-37.5-2.67-7.15-1.22-13.9-2.6-15-3.08-1.1-0.48-4.81-1.8-8.25-2.94-3.44-1.14-9.96-3.92-14.5-6.17-4.54-2.26-10.01-5.52-12.15-7.25-2.15-1.73-6.58-5.63-9.85-8.65-3.28-3.03-8.46-9.32-11.53-14-3.07-4.68-6.66-10.97-7.99-14-1.32-3.03-3.02-6.85-3.78-8.5-0.77-1.65-2.05-5.47-2.86-8.5-0.81-3.03-1.88-6.85-2.39-8.5-0.51-1.65-1.47-8.4-2.13-15-0.81-8.03-1.07-24.58-0.79-50 0.31-27.84 0.82-40.27 1.93-46.5 0.83-4.67 2.75-12.55 4.26-17.5 1.52-4.95 3.86-11.47 5.21-14.5 1.35-3.02 4.78-9.28 7.63-13.9 2.95-4.77 7.78-10.76 11.19-13.89 3.3-3.02 9.17-7.57 13.04-10.1 3.87-2.54 9.72-5.81 13-7.28 3.28-1.47 8.1-3.6 10.71-4.75 2.61-1.14 8.01-2.79 12-3.65 3.99-0.86 11.3-2.26 16.25-3.1 4.95-0.84 17.77-1.85 28.5-2.24 10.73-0.39 27.38-0.54 37-0.33zm-56.75 62.6c-5.64 1.81-9.62 3.82-12.59 6.39-2.39 2.06-5.32 5.21-6.5 7-1.19 1.79-3.17 6.51-4.41 10.5-2.21 7.12-2.25 8.14-2.19 56.75l0.07 49.5c4.97 15.28 6.15 17.27 10.7 21.75 2.92 2.89 6.41 5.78 7.75 6.42 1.33 0.64 6.24 2.17 10.92 3.39 7.66 2 10.82 2.21 32 2.15 16-0.05 26.77-0.57 33.75-1.64 8.4-1.29 11.47-2.27 17-5.44 3.71-2.14 7.91-5.4 9.32-7.25 1.41-1.86 3.65-5.63 4.97-8.38l2.4-5c0.5-74.12 0.21-94.34-0.47-100-0.6-4.95-1.74-11.36-2.53-14.25-0.92-3.36-1.98-5.25-2.94-5.25-0.82 0-1.31-0.34-1.07-0.75 0.23-0.41-0.33-2.28-1.25-4.16-0.95-1.93-4.06-5.03-7.18-7.15-3.02-2.06-6.85-4.27-8.5-4.92-1.65-0.64-4.57-1.36-6.5-1.61-1.93-0.24-5.98-0.88-9-1.43-3.02-0.54-12.25-0.92-20.5-0.83-8.25 0.09-19.5 0.48-25 0.87-6.32 0.45-13.04 1.68-18.25 3.34zm767.64-60.42l73.61 0.56 0.27 282-43.64-0.21c-24-0.11-43.85-0.48-44.13-0.83-0.28-0.34-0.54-41.2-0.59-90.79-0.05-49.59-0.16-91.97-0.41-98.17l-32.75-0.27c-18.01-0.15-32.97-0.47-33.25-0.73-0.28-0.25 1.3-2.49 3.5-4.99 2.2-2.5 6.03-6.93 8.5-9.85 2.47-2.93 10.74-12.26 18.37-20.74 7.62-8.48 17.07-19 21-23.39 3.92-4.38 9.7-10.68 12.85-14 3.15-3.31 5.78-6.31 5.84-6.65 0.07-0.33 2.53-3.16 5.48-6.27zm-279.97-0.45c58.89 0 106.97 0.3 106.83 0.67-0.14 0.37-8.35 9.13-18.25 19.46-9.9 10.34-20.61 21.51-23.81 24.83-3.33 3.47-5.62 6.68-5.37 7.54 0.24 0.83 2.11 7.8 4.15 15.5 2.05 7.7 4.31 19.4 5.04 26 0.95 8.66 1.25 25.52 0.83 109l-2.76 10.5c-1.53 5.83-4.78 14.5-7.31 19.5-2.5 4.95-5.93 10.8-7.61 13-1.68 2.2-5.1 5.93-7.61 8.29-2.5 2.35-5.9 5.5-7.54 7-1.64 1.49-5.02 3.78-7.5 5.09-2.48 1.31-7.77 4.13-11.76 6.25-3.99 2.13-8.15 3.87-9.25 3.87-1.1 0-2.17 0.34-2.38 0.75-0.21 0.42-1.67 1.08-3.25 1.48-1.58 0.4-6.92 1.61-11.87 2.69-5.79 1.25-16.86 2.36-31 3.08-14.14 0.73-45.41 0.95-87.5 0.63-36.03-0.28-79.34-0.54-96.25-0.57-26.39-0.05-30.65-0.26-30-1.49 0.41-0.79 5.88-6.76 12.15-13.25 6.27-6.5 15.27-15.76 20-20.57 8.58-8.74 8.6-8.76 7.39-12-0.67-1.79-2.3-6.4-3.63-10.25-1.32-3.85-3.2-11.72-4.17-17.5-1.55-9.19-1.77-17.56-1.76-67 0.01-38.71 0.4-59.17 1.23-65 0.66-4.67 1.55-8.95 1.98-9.5 0.43-0.55 1.1-2.35 1.49-4 0.39-1.65 1.91-5.7 3.37-9 1.46-3.3 4.36-8.58 6.43-11.75 2.07-3.16 7.28-9.23 11.57-13.5 4.3-4.26 8.91-8.57 10.25-9.57 1.35-1.01 6.5-3.78 11.45-6.15 4.95-2.38 12.82-5.68 17.5-7.33 4.67-1.65 12.1-3.52 16.5-4.17 4.4-0.64 14.07-1.42 21.5-1.72 7.42-0.31 13.57-0.61 13.66-0.68 0.1-0.07 48.36-0.13 107.26-0.13zm-157.92 17.01c-3.58 1.37-6.95 2.48-7.5 2.47-0.55-0.01-4.61 2.12-9.03 4.75-4.41 2.62-10.12 6.57-12.68 8.77-2.56 2.2-7.06 6.93-9.99 10.5-3.87 4.72-6.47 9.39-9.48 17-2.28 5.78-4.63 12.64-5.23 15.25-0.6 2.62-1.36 8.02-1.7 12-0.33 3.99-0.61 29.75-0.62 57.25-0.02 47.16 0.1 50.68 2.16 62 1.21 6.6 3.78 16.5 5.73 22 1.94 5.5 3.76 10.9 4.04 12 0.39 1.54-2.35 4.9-11.85 14.5-6.79 6.87-13.7 14-15.35 15.84l-3 3.35c195.64-0.83 207.93-1.07 215.5-2.58 4.67-0.93 9.85-1.85 11.5-2.05 1.65-0.19 6.6-1.78 11-3.52 4.4-1.75 11.37-5.06 15.5-7.36 4.83-2.69 10.34-7.03 15.5-12.22 6.19-6.22 8.94-9.95 12.17-16.5 2.29-4.65 5.09-11.38 6.22-14.96 1.12-3.57 2.53-8.75 3.13-11.5 0.63-2.91 1.26-21.89 1.51-45.5 0.23-22.31-0.03-46.34-0.58-53.5-0.55-7.15-1.55-16.09-2.23-19.86-0.67-3.77-1.56-7.04-1.97-7.25-0.41-0.21-0.75-1.51-0.75-2.89 0-1.37-1.14-5.98-2.54-10.25-1.39-4.26-2.96-9.1-3.49-10.75-0.52-1.65-0.95-3.56-0.96-4.25-0.01-0.68 3.13-4.51 6.96-8.5 3.84-3.98 6.99-7.81 7-8.5 0.02-0.68 0.59-1.25 1.28-1.26 0.69 0 5.62-4.39 10.96-9.75 5.34-5.35 9.63-9.97 9.53-10.25-0.11-0.28-47.22-0.53-104.71-0.55-95.58-0.03-105.6 0.13-117.03 1.78-6.88 0.99-15.43 2.92-19 4.29zm-635.06-16.29l75.26 0.28 0.04 282-4.87-0.1c-2.68-0.05-22.42-0.16-82.87-0.4l-0.19-189.5-30.41-0.18c-16.72-0.11-31.64-0.22-35.9-0.32l3.02-3.75c1.66-2.06 5.83-6.97 9.25-10.91 3.43-3.94 9.59-11.14 13.7-16 4.11-4.86 12.24-14.01 18.06-20.34 5.82-6.32 15.23-16.67 20.92-23 5.68-6.32 11.15-12.91 12.16-14.64zm943.56 90.62l2 2.4c1.1 1.32 4.25 4.14 7 6.28 2.75 2.13 5.45 4.36 6 4.95 0.55 0.59 3.24 2.87 5.97 5.05 2.73 2.19 5.88 4.74 7 5.67 1.12 0.93 6.3 5.06 11.53 9.19 5.22 4.13 12.2 9.72 15.5 12.42 3.3 2.71 7.01 5.43 8.25 6.06 1.24 0.63 2.08 1.48 1.87 1.89-0.21 0.41-5.5 4.66-11.75 9.43-6.26 4.77-12.5 9.72-13.87 11-1.38 1.28-4.87 4.12-7.77 6.32-2.89 2.2-5.24 4.23-5.22 4.5 0.03 0.28-0.98 1-2.23 1.61-1.26 0.61-5.49 3.98-9.42 7.5-3.93 3.51-8.99 7.85-15.36 12.89l-3.38-2.75c-1.85-1.51-6.17-5-9.6-7.75-5.59-4.49-6.02-5.1-4.3-6 1.05-0.55 5.93-4.12 10.85-7.95 4.91-3.82 10.84-8.65 13.18-10.75 2.34-2.09 3.91-4.04 3.5-4.33-0.41-0.29-17.74-0.51-76.25-0.47l0.01-11.75c0.01-6.46 0.23-12.76 0.99-16.25h37c20.35 0 36.97-0.34 36.94-0.75-0.03-0.41-4.55-4.35-10.03-8.75-5.49-4.4-11.76-9.46-17.91-14.5l3.59-2.75c1.98-1.51 6.36-4.92 9.75-7.58zm-798.14 23.32c2.28 0.38 6.17 1.58 8.64 2.66 2.48 1.08 6.46 3.7 8.86 5.82 2.47 2.19 5.62 6.46 7.28 9.86 2.06 4.25 2.94 7.61 3.01 11.5 0.05 3.03-0.62 7.98-1.49 11-0.87 3.03-2.76 7.3-4.2 9.5-1.44 2.2-4.49 5.46-6.79 7.24-2.29 1.78-6.64 3.91-9.67 4.74-3.02 0.82-8.2 1.5-11.5 1.51-4.51 0.01-7.49-0.69-12-2.81-3.3-1.55-7.73-4.59-9.85-6.75-2.12-2.16-5.01-6.18-6.43-8.93-2.01-3.9-2.57-6.42-2.54-11.5 0.03-3.57 0.88-9.2 1.91-12.5 1.49-4.79 3.07-7.21 7.89-12.04 4.98-5 7.06-6.34 12.02-7.74 3.3-0.93 7.06-1.82 8.36-1.97 1.29-0.15 4.22 0.03 6.5 0.41zm384.14 0.92c2.75-0.03 6.58 0.49 8.5 1.16 1.93 0.67 5.36 2.36 7.63 3.74 2.27 1.39 5.25 3.87 6.62 5.52 1.38 1.65 3.53 4.8 4.78 7 1.69 2.96 2.39 6.09 2.71 12 0.4 7.38 0.19 8.49-2.65 14.25-1.96 3.96-4.65 7.49-7.34 9.63-2.34 1.85-5.82 4.16-7.75 5.12-1.92 0.96-6.65 1.98-10.5 2.27-5 0.37-8.43 0.05-12-1.13-2.75-0.9-7.22-3.33-9.93-5.39-3.41-2.59-5.98-5.75-8.34-10.25-3.17-6.05-3.37-6.98-2.9-13.5 0.28-3.85 0.97-8.57 1.53-10.5 0.56-1.92 3.18-5.92 5.83-8.88 2.65-2.96 6.16-6.07 7.81-6.91 1.65-0.85 4.8-2.11 7-2.81 2.2-0.69 6.25-1.29 9-1.32z"/>
		<path id="Path 1" class="s1" d="m99.5 285.73c2.2 0.21 6.03 0.21 8.5 0 2.47-0.21 0.67-0.38-4-0.38-4.67 0-6.7 0.17-4.5 0.38zm31.5 0c1.93 0.21 5.3 0.21 7.5 0 2.2-0.22 0.63-0.39-3.5-0.39-4.13 0-5.93 0.17-4 0.39z"/>
		<path id="Path 2" fill-rule="evenodd" class="s0" d="m820.5 18.7c24.2 0.18 61.1 0.52 82 0.75 26.16 0.29 37.92 0.75 37.75 1.49-0.14 0.58-3.96 4.95-8.5 9.69-4.54 4.75-11.29 11.73-15 15.5-3.71 3.78-6.63 7.43-6.48 8.12 0.15 0.69 1.78 4.17 3.63 7.75 1.85 3.58 4.68 10.78 6.3 16 1.61 5.22 3.61 13.55 4.45 18.5 1.21 7.19 1.49 17.83 1.39 53-0.09 32.06-0.51 46.71-1.55 54-0.78 5.5-2.61 13.6-4.07 18-1.46 4.4-4.03 10.47-5.72 13.5-1.69 3.03-6.47 8.9-10.63 13.07-5.67 5.66-9.45 8.45-15.07 11.11-4.12 1.96-11.21 4.74-15.75 6.19-4.54 1.45-12.19 3.12-17 3.72-4.81 0.6-15.05 1.39-22.75 1.76-7.7 0.37-42.58 0.53-77.5 0.36-34.92-0.17-69.35-0.28-76.5-0.25-7.15 0.04-15.14 0.28-17.75 0.55-4.66 0.48-4.73 0.45-3.61-1.76 0.63-1.24 5.25-6.52 10.27-11.75 5.01-5.22 10.15-10.62 13.73-14.5l-2.57-4.25c-1.41-2.34-3.89-7.06-5.51-10.5-1.62-3.44-4.04-10.75-5.4-16.25-1.35-5.5-2.77-13.6-3.17-18-0.39-4.4-0.69-29.6-0.65-56 0.04-28.7 0.48-50.01 1.09-53 0.57-2.75 1.71-8.15 2.53-12 0.83-3.85 3.08-10.15 5-14 1.93-3.85 6.21-10.26 9.52-14.25 3.31-3.99 7.93-8.54 10.27-10.12 2.34-1.57 6.5-4 9.25-5.39 2.75-1.4 7.7-3.45 11-4.57 3.3-1.12 9.38-2.79 13.5-3.71 4.87-1.1 14.85-1.93 28.5-2.38 11.55-0.39 40.8-0.55 65-0.38zm-66.5 41.65c-1.37 0.22-4.08 0.74-6 1.15-1.92 0.41-6.09 2.04-9.25 3.62-3.16 1.59-7.53 4.79-9.7 7.13-2.18 2.34-4.95 6.28-6.16 8.75-1.63 3.33-2.41 7.37-2.99 15.5-0.43 6.05-0.79 26.53-0.81 45.5-0.03 18.97 0.17 37.76 0.43 41.75 0.27 3.99 0.82 7.26 1.23 7.28 0.41 0.02 7.73-7.05 16.25-15.7 8.52-8.65 17.73-17.77 20.45-20.28 2.72-2.5 6.77-6.53 9-8.95 2.23-2.42 10.05-10.3 17.37-17.5 7.33-7.21 25.93-25.7 41.34-41.1 25.68-25.68 27.77-28.02 25.17-28.22-1.56-0.12-14.75-0.35-29.33-0.5-14.58-0.15-35.05 0.04-45.5 0.44-10.45 0.4-20.13 0.9-21.5 1.13zm87.89 85.25c-2.42 2.26-9.87 9.68-16.57 16.5-6.7 6.82-16.83 16.98-22.5 22.58-5.68 5.59-18.33 18.3-28.12 28.23l-17.8 18.05c27.59 0.15 36.95 0.21 38.6 0.23 1.65 0.03 11.1-0.06 21-0.19 9.9-0.13 21.83-0.79 26.5-1.47 4.67-0.68 10.69-2.31 13.36-3.63 2.68-1.32 6.53-4.2 8.57-6.4 2.23-2.42 4.58-6.57 5.94-10.5 2.17-6.25 2.27-8.18 2.78-50.75 0.29-24.34 0.38-44.22 0.19-44.19-0.19 0.04-6.47 6.23-13.95 13.75-7.49 7.53-15.59 15.54-18 17.79z"/>
	</g>
</svg>