<svg version="1.2" xmlns="http://www.w3.org/2000/svg" viewBox="0 0 1856 560" width="1856" height="560">
	<style>
		.s0 { opacity: 1;fill: #fefefe } 
	</style>
	<path id="Path 0" fill-rule="evenodd" class="s0" d="m711.5 132.64c10.45 0.15 22.38 0.75 26.5 1.33 4.13 0.59 8.85 1.24 10.5 1.45 1.65 0.21 4.8 0.71 7 1.11 2.2 0.4 4.45 1.07 5 1.49 0.55 0.42 3.7 1.32 7 2.01 3.3 0.69 10.73 3.54 16.5 6.33 5.77 2.78 11.85 6.24 13.5 7.67 1.65 1.43 4.55 3.69 6.45 5.03 1.9 1.34 5.63 5.14 8.3 8.44 2.66 3.3 5.61 6.93 6.55 8.06 0.93 1.14 2.82 4.48 4.2 7.43 1.37 2.95 2.98 5.85 3.57 6.44 0.59 0.59 2.31 4.9 3.82 9.57 1.51 4.68 3.62 13.23 4.69 19 1.73 9.43 1.93 15.31 1.93 57.75-0.01 37.07-0.33 49.35-1.52 57-0.82 5.36-1.92 11.33-2.43 13.25-0.5 1.93-1.55 5.75-2.32 8.5-0.76 2.75-2.93 8.37-4.82 12.49-1.88 4.12-4.88 9.41-6.67 11.75-1.79 2.34-3.25 4.71-3.25 5.26 0 0.55-3.26 3.92-7.25 7.49-3.99 3.57-10.4 8.13-14.25 10.14-3.85 2.01-7.8 4.37-8.78 5.26-0.98 0.88-1.77 1.27-1.75 0.86 0.02-0.41-1.21-0.14-2.72 0.61-1.51 0.75-5.67 2.37-9.25 3.59-3.58 1.22-11.23 3.1-17 4.18-5.77 1.07-19.05 2.43-29.5 3.01-10.45 0.58-30.7 0.82-45 0.54-15.43-0.3-29.86-1.12-35.5-2-5.23-0.82-10.85-1.81-12.5-2.2-1.65-0.39-6.6-1.96-11-3.48-4.4-1.52-11.83-4.64-16.5-6.92-4.67-2.28-10.29-5.6-12.48-7.37-2.19-1.76-7.17-6.36-11.07-10.21-3.89-3.85-8.81-9.7-10.93-13-2.11-3.3-5.36-9.37-7.21-13.5-1.85-4.12-3.77-8.4-4.26-9.5-0.5-1.1-1.89-5.15-3.1-9-1.2-3.85-2.79-11.95-3.53-18-0.89-7.32-1.34-23.56-1.37-48.5-0.01-20.62 0.41-40.2 0.95-43.5 0.54-3.3 1.43-8.7 1.99-12 0.56-3.3 1.86-9.15 2.9-13 1.04-3.85 2.66-8.8 3.6-11 0.93-2.2 2.43-5.57 3.32-7.5 0.88-1.92 3.92-7.1 6.75-11.5 2.82-4.4 7.8-10.47 11.07-13.5 3.26-3.02 8.62-7.28 11.9-9.45 3.28-2.18 10.92-6.27 16.97-9.1 7.8-3.65 14.49-5.91 23-7.77 6.6-1.44 14.25-2.89 17-3.21 2.75-0.33 13.33-0.93 23.5-1.35 10.17-0.42 27.05-0.64 37.5-0.48zm-56.25 62.72c-5.64 1.81-9.62 3.82-12.59 6.39-2.39 2.06-5.32 5.21-6.5 7-1.19 1.79-3.17 6.51-4.41 10.5-2.21 7.12-2.25 8.14-2.19 56.75l0.07 49.5c4.97 15.28 6.15 17.27 10.7 21.75 2.92 2.89 6.41 5.78 7.75 6.42 1.33 0.64 6.25 2.17 10.92 3.39 7.66 2 10.82 2.21 32 2.15 16-0.05 26.77-0.57 33.75-1.64 8.4-1.29 11.47-2.27 17-5.44 3.71-2.14 7.91-5.4 9.32-7.25 1.41-1.86 3.65-5.63 4.97-8.38l2.4-5c0.5-74.12 0.21-94.34-0.47-100-0.6-4.95-1.74-11.36-2.53-14.25-0.92-3.36-1.98-5.25-2.94-5.25-0.83 0-1.31-0.34-1.07-0.75 0.23-0.41-0.33-2.28-1.25-4.16-0.95-1.93-4.06-5.03-7.18-7.15-3.02-2.06-6.85-4.27-8.5-4.92-1.65-0.64-4.58-1.36-6.5-1.61-1.92-0.24-5.98-0.88-9-1.43-3.02-0.54-12.25-0.92-20.5-0.83-8.25 0.09-19.5 0.48-25 0.87-6.32 0.45-13.04 1.68-18.25 3.34zm767.04-60.36h74.67l0.11 94.75c0.06 52.11 0.09 95.43 0.08 96.25-0.01 0.83-0.05 21.86-0.15 92l-87.5-0.5-0.55-6c-0.31-3.3-0.46-43.12-0.35-88.5 0.12-45.37-0.01-85.42-0.81-95.5h-32.81c-18.05 0-33.07-0.34-33.4-0.75-0.32-0.41 0.21-1.58 1.17-2.6 0.96-1.02 4.45-4.92 7.75-8.68 3.3-3.76 8.43-9.57 11.39-12.9 2.97-3.34 7.47-8.34 10-11.11 2.54-2.77 7.53-8.39 11.11-12.48 3.58-4.1 9.09-10.15 12.25-13.46 3.16-3.31 5.73-6.24 5.72-6.52-0.02-0.27 2.34-2.99 5.25-6.03 2.9-3.04 7.71-8.33 10.67-11.75zm-996.78 0.08l-0.03 282.42h-35.99c-19.79 0-39.67-0.22-52.37-1v-189l-31.81-0.1c-17.49-0.05-32.37-0.16-33.05-0.25-0.79-0.09-0.25-1.53 1.46-3.9 1.5-2.06 6.8-8.25 11.79-13.75 4.99-5.5 11.29-12.7 14-16 2.71-3.3 7.42-8.73 10.46-12.07 3.04-3.34 8.01-8.79 11.04-12.1 3.02-3.31 7.1-7.78 9.06-9.93 1.96-2.14 6.48-7.27 10.06-11.4 3.58-4.12 7.26-8.74 9.88-13l18.75-0.25c10.31-0.14 27.3-0.12 56.75 0.33zm706.37-0.58c116.65 0 118.95 0.04 117.3 1.89-0.92 1.04-6.17 6.5-11.67 12.12-5.5 5.62-13.15 13.57-17 17.67-3.85 4.1-8.22 8.77-9.71 10.38-1.49 1.62-3.19 3.39-3.78 3.94-0.58 0.55-1.95 2.01-3.04 3.25-1.82 2.07-1.87 2.63-0.66 7 0.73 2.61 1.6 5.2 1.93 5.75 0.33 0.55 0.89 2.58 1.24 4.5 0.34 1.93 1.47 7.1 2.49 11.5 1.03 4.4 2.36 12.73 2.95 18.5 0.6 5.8 1.07 28.87 1.05 51.5-0.02 22.55-0.46 45.5-0.97 51-0.51 5.5-2.05 13.83-3.43 18.5-1.38 4.68-4.89 12.96-7.79 18.4-3.6 6.74-7.23 11.85-11.36 16-3.34 3.36-7.89 7.68-10.11 9.6-2.21 1.93-6.68 4.81-9.92 6.4-3.24 1.59-6.57 3.44-7.39 4.11-0.83 0.67-3.75 2.01-6.5 2.98-2.75 0.96-6.35 2.33-8 3.04-1.65 0.7-6.83 2.06-11.5 3.02-4.68 0.95-14.13 2.3-21 3-9.56 0.97-37.82 1.17-120 0.84-59.13-0.24-107.58-0.53-107.68-0.66-0.1-0.13 5.23-5.85 11.84-12.73 6.61-6.87 16.14-16.66 21.18-21.74 8.44-8.52 9.06-9.41 7.98-11.5-0.65-1.24-2.11-5.07-3.25-8.51-1.14-3.44-3.06-11.54-4.26-18-2.1-11.27-2.19-14.17-2.14-70.75 0.03-42.65 0.39-60.66 1.28-65 0.68-3.3 2.57-9.82 4.22-14.5 1.64-4.67 3.45-9.4 4.02-10.5 0.57-1.1 2.99-4.92 5.39-8.5 2.39-3.57 7.66-9.65 11.7-13.5 4.04-3.85 8.44-7.82 9.78-8.83 1.34-1 4.12-2.69 6.19-3.75 2.06-1.05 3.75-2.37 3.75-2.92 0-0.55 0.45-0.77 1-0.5 0.55 0.28 3.13-0.47 5.75-1.65 2.61-1.18 8.57-3.43 13.25-5 4.67-1.56 12.55-3.36 17.5-4 4.95-0.64 9.31-1.43 9.7-1.76 0.38-0.32 54.24-0.59 119.67-0.59zm-146.87 17.01c-3.58 1.36-6.95 2.47-7.5 2.46-0.55-0.01-4.62 2.13-9.03 4.76-4.42 2.62-10.12 6.57-12.68 8.77-2.56 2.2-7.06 6.93-9.99 10.5-3.87 4.72-6.47 9.38-9.48 17-2.28 5.78-4.63 12.64-5.23 15.25-0.6 2.61-1.37 8.01-1.7 12-0.33 3.99-0.61 29.75-0.62 57.25-0.03 47.16 0.1 50.68 2.16 62 1.2 6.6 3.78 16.5 5.72 22 1.95 5.5 3.77 10.9 4.05 12 0.39 1.54-2.35 4.89-11.85 14.5-6.79 6.87-13.7 14-15.35 15.84l-3 3.35c195.64-0.83 207.93-1.07 215.5-2.58 4.67-0.93 9.85-1.85 11.5-2.05 1.65-0.19 6.6-1.78 11-3.52 4.4-1.75 11.37-5.06 15.5-7.36 4.83-2.69 10.34-7.04 15.5-12.22 6.18-6.22 8.94-9.95 12.17-16.5 2.29-4.65 5.09-11.38 6.21-14.96 1.13-3.57 2.54-8.75 3.14-11.5 0.63-2.91 1.26-21.89 1.5-45.5 0.24-22.31-0.02-46.34-0.57-53.5-0.55-7.15-1.55-16.09-2.23-19.86-0.67-3.78-1.56-7.04-1.97-7.25-0.42-0.21-0.75-1.51-0.75-2.89 0-1.37-1.15-5.99-2.54-10.25-1.39-4.26-2.96-9.1-3.49-10.75-0.52-1.65-0.96-3.56-0.96-4.25-0.01-0.69 3.12-4.51 6.96-8.5 3.84-3.99 6.99-7.81 7-8.5 0.01-0.69 0.59-1.25 1.28-1.26 0.68 0 5.62-4.39 10.96-9.75 5.34-5.36 9.62-9.97 9.52-10.25-0.1-0.29-47.22-0.53-104.71-0.55-95.57-0.03-105.59 0.12-117.02 1.77-6.88 1-15.43 2.93-19 4.3zm307.89 74.52c0.33 0.02 2.66 1.94 5.17 4.25 2.52 2.32 7.86 6.92 11.89 10.22 4.02 3.3 8.34 6.9 9.6 8 1.26 1.1 6.86 5.6 12.44 10 5.58 4.4 13.19 10.48 16.92 13.5 3.73 3.03 7.63 5.98 8.68 6.56 1.69 0.94 0.43 2.21-10.87 11-7.03 5.47-14.68 11.44-17 13.28-2.32 1.83-5.8 4.79-7.72 6.57-1.93 1.79-4.85 4.09-6.5 5.11-1.65 1.03-5.51 4.15-8.57 6.93-3.06 2.78-7.26 6.4-9.34 8.05-2.07 1.65-3.94 3.23-4.15 3.5-0.2 0.28-1.85-0.76-3.66-2.3-1.81-1.54-6.1-5.03-15.78-12.7l5.75-4.41c3.16-2.43 8.22-6.32 11.25-8.64 3.02-2.33 7.07-5.69 12.5-10.69l-3-0.64c-1.65-0.35-18.87-0.64-73.5-0.62l0.5-27.5 74.61-1-3.31-3.08c-1.82-1.69-5.33-4.6-7.8-6.48-2.48-1.87-4.95-3.89-5.5-4.49-0.55-0.59-3.39-2.85-11.62-8.95l3.47-3c1.92-1.65 4.98-4.26 6.81-5.79 1.84-1.53 3.56-2.76 3.84-2.72 0.27 0.04 1.35-0.84 2.39-1.96 1.05-1.11 2.17-2.01 2.5-2zm-797.89 22.77c1.92 0.23 5.75 1.44 8.5 2.69 2.75 1.24 6.97 4 9.39 6.14 2.41 2.13 5.75 6.57 7.41 9.87 2.38 4.71 3.02 7.29 3 12-0.01 3.3-0.82 8.48-1.81 11.5-0.99 3.03-2.74 6.9-3.9 8.62-1.15 1.71-4.12 4.77-6.59 6.8-2.61 2.13-6.82 4.32-10 5.2-3.03 0.84-8.2 1.53-11.5 1.54-4.35 0.02-7.59-0.69-11.75-2.57-3.17-1.42-7.61-4.5-9.87-6.84-2.26-2.34-5.13-6.27-6.38-8.75-1.24-2.47-2.56-5.85-2.92-7.5-0.37-1.65-0.17-6.15 0.43-10 0.61-3.85 2.03-9.02 3.15-11.5 1.12-2.47 3.9-6.24 6.19-8.38 2.28-2.13 5.27-4.42 6.65-5.09 1.37-0.67 4.52-1.73 7-2.35 2.47-0.62 5.62-1.28 7-1.47 1.37-0.18 4.07-0.14 6 0.09zm386 1.46c4.4 0.2 8.11 1.09 11.5 2.76 2.75 1.35 6.28 3.59 7.86 4.97 1.57 1.38 4.25 4.99 5.94 8.01 2.49 4.43 3.17 6.96 3.5 13 0.34 6.25 0.01 8.5-2.01 13.5-1.89 4.66-3.76 7.14-8.36 11.08-4.42 3.79-7.27 5.38-11.18 6.25-2.89 0.64-7.84 1.18-11 1.18-4.14 0.01-7.16-0.68-10.75-2.47-2.75-1.37-6.77-3.96-8.93-5.76-2.31-1.93-5.1-5.75-6.75-9.28-2.02-4.28-2.83-7.57-2.84-11.5 0-3.02 0.68-7.75 1.52-10.5 0.84-2.75 2.98-6.87 4.76-9.15 1.78-2.28 4.79-5.2 6.69-6.5 1.9-1.29 5.72-3.15 8.5-4.12q5.05-1.77 11.55-1.47zm204.5-99.62c23.1 0.15 60.78 0.4 83.75 0.57 32.57 0.23 41.75 0.57 41.75 1.54 0 0.69-0.81 1.81-1.79 2.5-0.98 0.69-7.73 7.66-15 15.5-7.27 7.84-13.22 14.81-13.23 15.5 0 0.69 1.52 4.4 3.39 8.25 1.87 3.85 4.62 11.05 6.11 16 1.49 4.95 3.39 13.05 4.22 18 1.2 7.18 1.47 17.98 1.35 53.5-0.11 32.32-0.54 47.24-1.57 54.5-0.78 5.5-2.7 13.6-4.27 18-1.57 4.4-4.15 10.25-5.73 13-1.58 2.75-6.5 8.63-10.93 13.06-4.49 4.5-10.04 8.99-12.55 10.15-2.48 1.14-9.23 3.72-15 5.73-6.11 2.13-14.06 4.05-19 4.61-4.68 0.53-16.38 1.4-26 1.93-9.88 0.55-50.17 0.77-92.5 0.51-47.95-0.3-76.18-0.11-78.25 0.52-2.47 0.75-3.25 0.69-3.23-0.26 0.02-0.69 1.12-2.6 2.45-4.25 1.32-1.65 6.92-7.72 22.44-24l-1.59-3c-0.88-1.65-1.93-3.22-2.33-3.5-0.4-0.27-2.11-3.65-3.8-7.5-1.69-3.85-4.04-10.82-5.23-15.5-1.18-4.67-2.58-10.75-3.12-13.5-0.56-2.87-0.99-27.54-1.01-111l2.58-11.75c1.42-6.46 3.94-14.56 5.59-18 1.65-3.44 6.06-9.85 9.79-14.25 4.36-5.14 9.19-9.52 13.5-12.25 3.69-2.34 10.19-5.54 14.46-7.13 4.26-1.58 11.35-3.68 15.75-4.66 5.23-1.16 14.73-2 27.5-2.43 10.72-0.37 38.4-0.54 61.5-0.39zm-61.5 41.71c-1.38 0.22-4.08 0.74-6 1.15-1.93 0.41-6.09 2.04-9.25 3.62-3.17 1.59-7.53 4.79-9.71 7.13-2.17 2.34-4.95 6.28-6.16 8.75-1.63 3.33-2.41 7.37-2.98 15.5-0.43 6.05-0.8 26.53-0.82 45.5-0.02 18.98 0.18 37.76 0.44 41.75 0.26 3.99 0.81 7.26 1.23 7.28 0.41 0.02 7.72-7.05 16.25-15.7 8.52-8.65 17.72-17.77 20.45-20.28 2.72-2.5 6.77-6.53 9-8.95 2.22-2.42 10.04-10.3 17.37-17.5 7.33-7.21 25.93-25.7 41.33-41.1 25.69-25.68 27.78-28.02 25.18-28.22-1.56-0.12-14.76-0.35-29.33-0.5-14.58-0.15-35.05 0.04-45.5 0.44-10.45 0.4-20.13 0.9-21.5 1.13zm87.88 85.25c-2.41 2.26-9.87 9.68-16.57 16.5-6.7 6.82-16.82 16.98-22.5 22.58-5.67 5.59-18.32 18.3-28.12 28.23l-17.8 18.05c27.6 0.15 36.96 0.21 38.61 0.23 1.65 0.03 11.1-0.06 21-0.19 9.9-0.13 21.82-0.79 26.5-1.47 4.67-0.68 10.68-2.31 13.36-3.63 2.68-1.32 6.53-4.2 8.56-6.4 2.23-2.42 4.59-6.57 5.95-10.5 2.16-6.25 2.27-8.18 2.77-50.75 0.3-24.34 0.38-44.22 0.19-44.19-0.18 0.04-6.46 6.23-13.95 13.75-7.48 7.53-15.58 15.54-18 17.79z"/>
</svg>